<svg id="Layer_2" data-name="Layer 2" xmlns="http://www.w3.org/2000/svg" viewBox="0 0 423.83 423.83"><defs><style>.cls-3{fill:#054ff0}</style></defs><g id="Layer_1-2" data-name="Layer 1"><rect class="cls-3" width="423.83" height="423.83" rx="47" ry="47"/><path d="M373.89 307.05c-3.62.27-6.74-1.51-10.06-2.36a445.47 445.47 0 0 1-13.89-3.81c-4.75-1.38-9.45-2.9-14.18-4.33-.61-.18-1.31-.28-1.94-.18-3.87.59-7.72 1.33-11.6 1.85-5.03.69-10.08 1.3-15.14 1.81-3.9.39-7.83.54-11.74.88-3.63.31-7.25.75-10.87 1.1-1.54.15-3.09.24-4.64.29-3.15.12-6.31.18-9.46.29-4.88.17-9.77.37-14.65.57-1.21.05-2.41.25-3.62.26-13.74.18-27.48.34-41.23.5-3.02.04-6.04.1-9.06.06-4.28-.05-8.57-.16-12.85-.28-2.58-.07-5.16-.17-7.74-.28-4.08-.18-8.15-.36-12.23-.56-3.18-.16-6.36-.32-9.53-.57-5.5-.42-11-.91-16.5-1.36-2.84-.23-5.69-.35-8.53-.64-3.79-.38-7.57-.87-11.36-1.32-2.72-.32-5.45-.59-8.17-.97-2.66-.36-5.32-.79-7.97-1.25-1.47-.26-2.8-.39-4.33.16-2.88 1.05-5.9 1.7-8.86 2.55-4.18 1.2-8.34 2.46-12.52 3.66-4.73 1.35-9.4 3.1-14.23 3.88-7 1.14-14.11-3.32-16.59-10.53-1.25-3.62-.85-7.13.16-10.68.92-3.21 1.81-6.43 2.73-9.64 1.25-4.34 2.51-8.68 3.79-13.01.98-3.35 2.02-6.68 2.97-10.04.14-.5-.04-1.11-.14-1.66-.78-4.13-1.62-8.25-2.35-12.39-.64-3.65-1.23-7.31-1.68-10.99-.4-3.33-.58-6.69-.87-10.03-.28-3.21-.68-6.42-.83-9.63-.22-4.56-.34-9.13-.37-13.7-.04-6.05-.09-12.11.11-18.15.13-4.05.66-8.08 1.08-12.11.32-3.09.67-6.17 1.15-9.24.53-3.42 1.19-6.82 1.87-10.21.32-1.61.82-3.18 1.22-4.77.05-.22.04-.48-.02-.7-1.17-4.14-2.37-8.26-3.52-12.41-1.93-6.97-3.95-13.91-5.7-20.93-1.86-7.45 2.95-15.29 10.06-17.66 2.89-.96 6.02-1 9-.21 5.12 1.36 10.19 2.91 15.3 4.35 3.32.94 6.68 1.75 9.99 2.73 3.12.92 6.16 2.15 9.32 2.91 1.43.34 3.06-.01 4.58-.22 3.55-.49 7.07-1.17 10.62-1.59 4.8-.58 9.63-.99 14.44-1.47 3.85-.38 7.69-.79 11.54-1.12 5.12-.43 10.23-.81 15.36-1.16 3.55-.24 7.11-.4 10.66-.57 4.55-.21 9.1-.46 13.65-.59 8.12-.23 16.23-.47 24.35-.54 9.13-.08 18.26-.01 27.39.04 4.15.02 8.29.16 12.44.27 2.63.07 5.25.17 7.88.27 4.45.18 8.91.35 13.36.56 3.13.15 6.27.31 9.39.55 4.42.34 8.84.78 13.26 1.12 2.93.23 5.87.28 8.79.55 3.25.3 6.48.77 9.72 1.14 2.67.31 5.36.56 8.03.9 2.61.33 5.22.74 7.83 1.1 2.16.3 4.33.57 6.5.85 2.58.34 4.7-1.2 7.06-1.76 3.33-.79 6.59-1.83 9.88-2.77 4.39-1.25 8.78-2.51 13.16-3.78 3.93-1.13 7.83-2.38 12.02-2.19 7.53.33 13.03 6.39 13.97 12.53.67 4.37-.68 8.3-1.78 12.33-.92 3.39-1.9 6.78-2.86 10.16-1.12 3.97-2.24 7.95-3.38 11.91-.43 1.49-.96 2.95-1.38 4.45-.11.39-.06.85.02 1.26.91 4.44 1.94 8.86 2.75 13.31.68 3.73 1.17 7.5 1.68 11.26.19 1.43.22 2.89.31 4.34.6 9.21 1.14 18.42.77 27.65-.21 5.16-.43 10.31-.77 15.46-.28 4.28-.63 8.57-1.14 12.83-.53 4.45-1.21 8.89-1.96 13.31-.76 4.48-1.69 8.92-2.52 13.39-.07.35 0 .75.11 1.1 1.46 5.1 2.93 10.2 4.41 15.3 1.82 6.25 3.77 12.45 5.43 18.74 2.23 8.4-2.09 16.58-10.11 19.03-1.68.51-3.5.53-5.26.78z" style="fill:#fff"/><path d="M33.99 264.82v5.12-5.12z" style="fill:#222"/><path class="cls-3" d="M246.69 164.47c-.92.2-1.8.38-2.67.57-1.3.29-2.59.58-3.88.89-1.04.26-2.06.58-3.1.83-1.42.35-2.85.64-4.27 1-3.85.99-7.69 2.02-11.54 3.02-.79.21-1.67.21-2.4.54-1.72.78-3.61.76-5.38 1.29-1.02.3-2.11.41-3.14.67-1.02.26-2 .66-3.02.93-.93.25-1.88.41-2.83.61-.94.2-1.88.37-2.81.6-2.17.54-4.33 1.12-6.49 1.68-2.16.56-4.32 1.11-6.47 1.7-.16.04-.34.32-.36.5-.03.31.1.64.1.96v57.11c0 3.56-1.14 6.73-3.22 9.58-1.24 1.7-2.9 2.95-4.67 4.04-1.89 1.16-3.88 2.15-6.08 2.61-1.35.29-2.73.4-4.08.69-1.39.3-2.69-.12-4.03-.26-2.09-.2-4.05-.79-5.88-1.74-1.58-.83-3.13-1.75-4.57-2.81-2.2-1.63-3.69-3.87-4.84-6.34-.66-1.42-.94-2.94-1.12-4.5-.34-2.93.32-5.66 1.64-8.21 1.36-2.62 3.32-4.74 5.76-6.46 2.27-1.61 4.75-2.66 7.44-3.17 1.61-.3 3.28-.51 4.91-.42 3.07.17 6.12.64 8.9 2.07.88.45 1.68 1.03 2.53 1.55.13.08.27.12.57.26v-64.19c0-.84-.07-1.68-.05-2.51 0-.2.18-.5.34-.56.62-.23 1.27-.38 1.92-.55l3.34-.87c2.48-.65 4.95-1.34 7.44-1.93 2.09-.5 4.23-.81 6.3-1.35.82-.22 1.71-.28 2.46-.59.77-.32 1.61-.2 2.3-.55.98-.5 2.06-.5 3.07-.79 2.08-.61 4.18-1.16 6.28-1.69 3.29-.83 6.6-1.62 9.89-2.43 2.68-.65 5.36-1.31 8.05-1.95.93-.22 1.88-.37 2.8-.59 2.08-.5 4.16-1.01 6.22-1.55 1.67-.44 3.31-.96 4.98-1.39 1.99-.51 4-.96 6.01-1.42.15-.04.32 0 .4 0 0 .83-.01 1.63 0 2.44 0 .35.1.69.1 1.04 0 25.56.02 51.13-.01 76.69 0 2.4-.08 4.83-1.07 7.1-.8 1.83-1.78 3.53-3.14 5.02-1.58 1.73-3.4 3.15-5.46 4.19-1.49.76-3.14 1.22-4.74 1.76-2.49.85-5.08.64-7.62.52-2.28-.11-4.46-.89-6.52-1.94-1.97-1-3.73-2.28-5.39-3.75-2.08-1.85-3.15-4.25-4.08-6.8-.82-2.23-.56-4.48-.48-6.71.07-1.81.89-3.51 1.77-5.13 1.7-3.12 4.32-5.25 7.33-7.02 1.87-1.1 3.88-1.88 5.96-2.18 2.1-.31 4.28-.11 6.42-.06 1.75.04 3.46.43 5.06 1.13 1.33.58 2.59 1.31 3.88 1.97.35.18.7.35 1.21.61v-43.77z"/></g></svg>